<mxfile host="Electron" agent="Mozilla/5.0 (Windows NT 10.0; Win64; x64) AppleWebKit/537.36 (KHTML, like Gecko) draw.io/26.2.15 Chrome/134.0.6998.205 Electron/35.2.1 Safari/537.36" version="26.2.15">
  <diagram name="Page-1" id="-H_mtQnk-PTXWXPvYvuk">
    <mxGraphModel dx="1678" dy="999" grid="1" gridSize="10" guides="1" tooltips="1" connect="1" arrows="1" fold="1" page="1" pageScale="1" pageWidth="1169" pageHeight="827" math="0" shadow="0">
      <root>
        <mxCell id="0" />
        <mxCell id="1" parent="0" />
        <mxCell id="GQqyCp6rinUYMElH8DfC-96" value="" style="endArrow=classic;html=1;rounded=0;entryX=0.5;entryY=1;entryDx=0;entryDy=0;exitX=0.5;exitY=1;exitDx=0;exitDy=0;" parent="1" source="GQqyCp6rinUYMElH8DfC-88" target="GQqyCp6rinUYMElH8DfC-79" edge="1">
          <mxGeometry width="50" height="50" relative="1" as="geometry">
            <mxPoint x="780" y="1990" as="sourcePoint" />
            <mxPoint x="770" y="2070" as="targetPoint" />
            <Array as="points">
              <mxPoint x="620" y="2300" />
              <mxPoint x="780" y="2300" />
              <mxPoint x="780" y="1940" />
              <mxPoint x="680" y="1940" />
            </Array>
          </mxGeometry>
        </mxCell>
        <mxCell id="zA23MoTUsTF4_91t8viU-2" value="MongoDB" style="shape=cylinder3;whiteSpace=wrap;html=1;boundedLbl=1;backgroundOutline=1;size=15;" parent="1" vertex="1">
          <mxGeometry x="570" y="120" width="60" height="80" as="geometry" />
        </mxCell>
        <mxCell id="zA23MoTUsTF4_91t8viU-3" value="pymongo-api" style="rounded=1;whiteSpace=wrap;html=1;" parent="1" vertex="1">
          <mxGeometry x="370" y="130" width="120" height="60" as="geometry" />
        </mxCell>
        <mxCell id="zA23MoTUsTF4_91t8viU-4" style="edgeStyle=orthogonalEdgeStyle;rounded=0;orthogonalLoop=1;jettySize=auto;html=1;exitX=1;exitY=0.5;exitDx=0;exitDy=0;entryX=0;entryY=0.5;entryDx=0;entryDy=0;entryPerimeter=0;" parent="1" source="zA23MoTUsTF4_91t8viU-3" target="zA23MoTUsTF4_91t8viU-2" edge="1">
          <mxGeometry relative="1" as="geometry" />
        </mxCell>
        <mxCell id="GQqyCp6rinUYMElH8DfC-1" value="&lt;font style=&quot;font-size: 20px;&quot;&gt;Изначальный вариант - схема 0&lt;/font&gt;" style="text;html=1;align=center;verticalAlign=middle;resizable=0;points=[];autosize=1;strokeColor=none;fillColor=none;" parent="1" vertex="1">
          <mxGeometry x="340" y="40" width="320" height="40" as="geometry" />
        </mxCell>
        <mxCell id="GQqyCp6rinUYMElH8DfC-2" value="&lt;font style=&quot;font-size: 20px;&quot;&gt;Задание 1 - схема 1&lt;/font&gt;" style="text;html=1;align=center;verticalAlign=middle;resizable=0;points=[];autosize=1;strokeColor=none;fillColor=none;" parent="1" vertex="1">
          <mxGeometry x="395" y="300" width="210" height="40" as="geometry" />
        </mxCell>
        <mxCell id="GQqyCp6rinUYMElH8DfC-29" value="&lt;font style=&quot;font-size: 20px;&quot;&gt;Задание 1 - схема 2&lt;/font&gt;" style="text;html=1;align=center;verticalAlign=middle;resizable=0;points=[];autosize=1;strokeColor=none;fillColor=none;" parent="1" vertex="1">
          <mxGeometry x="385" y="820" width="210" height="40" as="geometry" />
        </mxCell>
        <mxCell id="GQqyCp6rinUYMElH8DfC-31" value="" style="edgeStyle=orthogonalEdgeStyle;rounded=0;orthogonalLoop=1;jettySize=auto;html=1;" parent="1" source="GQqyCp6rinUYMElH8DfC-32" target="GQqyCp6rinUYMElH8DfC-34" edge="1">
          <mxGeometry relative="1" as="geometry" />
        </mxCell>
        <mxCell id="GQqyCp6rinUYMElH8DfC-32" value="pymongo-api" style="rounded=1;whiteSpace=wrap;html=1;" parent="1" vertex="1">
          <mxGeometry x="440" y="930" width="120" height="60" as="geometry" />
        </mxCell>
        <mxCell id="GQqyCp6rinUYMElH8DfC-33" value="" style="edgeStyle=orthogonalEdgeStyle;rounded=0;orthogonalLoop=1;jettySize=auto;html=1;exitX=0.75;exitY=1;exitDx=0;exitDy=0;entryX=0.494;entryY=-0.067;entryDx=0;entryDy=0;entryPerimeter=0;" parent="1" source="GQqyCp6rinUYMElH8DfC-34" target="GQqyCp6rinUYMElH8DfC-66" edge="1">
          <mxGeometry relative="1" as="geometry">
            <mxPoint x="560" y="1160" as="targetPoint" />
          </mxGeometry>
        </mxCell>
        <mxCell id="GQqyCp6rinUYMElH8DfC-34" value="Router&amp;nbsp;&lt;span style=&quot;background-color: transparent; color: light-dark(rgb(0, 0, 0), rgb(255, 255, 255));&quot;&gt;Mongos&lt;/span&gt;" style="rounded=1;whiteSpace=wrap;html=1;" parent="1" vertex="1">
          <mxGeometry x="440" y="1040" width="120" height="60" as="geometry" />
        </mxCell>
        <mxCell id="GQqyCp6rinUYMElH8DfC-35" value="Configuration server" style="rounded=1;whiteSpace=wrap;html=1;" parent="1" vertex="1">
          <mxGeometry x="630" y="1040" width="120" height="60" as="geometry" />
        </mxCell>
        <mxCell id="GQqyCp6rinUYMElH8DfC-40" value="" style="endArrow=classic;html=1;rounded=0;exitX=1;exitY=0.5;exitDx=0;exitDy=0;entryX=0;entryY=0.5;entryDx=0;entryDy=0;" parent="1" source="GQqyCp6rinUYMElH8DfC-34" target="GQqyCp6rinUYMElH8DfC-35" edge="1">
          <mxGeometry width="50" height="50" relative="1" as="geometry">
            <mxPoint x="530" y="1160" as="sourcePoint" />
            <mxPoint x="600" y="1110" as="targetPoint" />
          </mxGeometry>
        </mxCell>
        <mxCell id="GQqyCp6rinUYMElH8DfC-41" value="Shard1&lt;div&gt;MongoDB&lt;/div&gt;" style="shape=cylinder3;whiteSpace=wrap;html=1;boundedLbl=1;backgroundOutline=1;size=15;" parent="1" vertex="1">
          <mxGeometry x="380" y="600" width="60" height="80" as="geometry" />
        </mxCell>
        <mxCell id="GQqyCp6rinUYMElH8DfC-42" value="" style="edgeStyle=orthogonalEdgeStyle;rounded=0;orthogonalLoop=1;jettySize=auto;html=1;" parent="1" source="GQqyCp6rinUYMElH8DfC-43" target="GQqyCp6rinUYMElH8DfC-45" edge="1">
          <mxGeometry relative="1" as="geometry" />
        </mxCell>
        <mxCell id="GQqyCp6rinUYMElH8DfC-43" value="pymongo-api" style="rounded=1;whiteSpace=wrap;html=1;" parent="1" vertex="1">
          <mxGeometry x="410" y="370" width="120" height="60" as="geometry" />
        </mxCell>
        <mxCell id="GQqyCp6rinUYMElH8DfC-44" value="" style="edgeStyle=orthogonalEdgeStyle;rounded=0;orthogonalLoop=1;jettySize=auto;html=1;exitX=0.75;exitY=1;exitDx=0;exitDy=0;" parent="1" source="GQqyCp6rinUYMElH8DfC-45" target="GQqyCp6rinUYMElH8DfC-47" edge="1">
          <mxGeometry relative="1" as="geometry" />
        </mxCell>
        <mxCell id="GQqyCp6rinUYMElH8DfC-45" value="router&amp;nbsp;&lt;span style=&quot;background-color: transparent; color: light-dark(rgb(0, 0, 0), rgb(255, 255, 255));&quot;&gt;Mongos&lt;/span&gt;" style="rounded=1;whiteSpace=wrap;html=1;" parent="1" vertex="1">
          <mxGeometry x="410" y="480" width="120" height="60" as="geometry" />
        </mxCell>
        <mxCell id="GQqyCp6rinUYMElH8DfC-46" value="configuration server" style="rounded=1;whiteSpace=wrap;html=1;" parent="1" vertex="1">
          <mxGeometry x="600" y="480" width="120" height="60" as="geometry" />
        </mxCell>
        <mxCell id="GQqyCp6rinUYMElH8DfC-47" value="Shard2&lt;div&gt;MongoDB&lt;/div&gt;" style="shape=cylinder3;whiteSpace=wrap;html=1;boundedLbl=1;backgroundOutline=1;size=15;" parent="1" vertex="1">
          <mxGeometry x="500" y="600" width="60" height="80" as="geometry" />
        </mxCell>
        <mxCell id="GQqyCp6rinUYMElH8DfC-48" value="" style="endArrow=classic;html=1;rounded=0;entryX=0.5;entryY=0;entryDx=0;entryDy=0;entryPerimeter=0;exitX=0.25;exitY=1;exitDx=0;exitDy=0;" parent="1" source="GQqyCp6rinUYMElH8DfC-45" target="GQqyCp6rinUYMElH8DfC-41" edge="1">
          <mxGeometry width="50" height="50" relative="1" as="geometry">
            <mxPoint x="500" y="600" as="sourcePoint" />
            <mxPoint x="550" y="550" as="targetPoint" />
            <Array as="points">
              <mxPoint x="440" y="570" />
              <mxPoint x="410" y="570" />
            </Array>
          </mxGeometry>
        </mxCell>
        <mxCell id="GQqyCp6rinUYMElH8DfC-49" value="" style="endArrow=classic;html=1;rounded=0;exitX=0.5;exitY=1;exitDx=0;exitDy=0;exitPerimeter=0;entryX=0.677;entryY=1.027;entryDx=0;entryDy=0;entryPerimeter=0;" parent="1" source="GQqyCp6rinUYMElH8DfC-41" target="GQqyCp6rinUYMElH8DfC-46" edge="1">
          <mxGeometry width="50" height="50" relative="1" as="geometry">
            <mxPoint x="680" y="710" as="sourcePoint" />
            <mxPoint x="500" y="600" as="targetPoint" />
            <Array as="points">
              <mxPoint x="410" y="720" />
              <mxPoint x="681" y="720" />
            </Array>
          </mxGeometry>
        </mxCell>
        <mxCell id="GQqyCp6rinUYMElH8DfC-50" value="" style="endArrow=classic;html=1;rounded=0;exitX=0.5;exitY=1;exitDx=0;exitDy=0;entryX=0.25;entryY=1;entryDx=0;entryDy=0;exitPerimeter=0;" parent="1" source="GQqyCp6rinUYMElH8DfC-47" target="GQqyCp6rinUYMElH8DfC-46" edge="1">
          <mxGeometry width="50" height="50" relative="1" as="geometry">
            <mxPoint x="420" y="690" as="sourcePoint" />
            <mxPoint x="691" y="552" as="targetPoint" />
            <Array as="points">
              <mxPoint x="530" y="700" />
              <mxPoint x="630" y="700" />
            </Array>
          </mxGeometry>
        </mxCell>
        <mxCell id="GQqyCp6rinUYMElH8DfC-51" value="" style="endArrow=classic;html=1;rounded=0;exitX=1;exitY=0.5;exitDx=0;exitDy=0;entryX=0;entryY=0.5;entryDx=0;entryDy=0;" parent="1" source="GQqyCp6rinUYMElH8DfC-45" target="GQqyCp6rinUYMElH8DfC-46" edge="1">
          <mxGeometry width="50" height="50" relative="1" as="geometry">
            <mxPoint x="500" y="600" as="sourcePoint" />
            <mxPoint x="570" y="550" as="targetPoint" />
          </mxGeometry>
        </mxCell>
        <mxCell id="GQqyCp6rinUYMElH8DfC-53" value="" style="rounded=1;whiteSpace=wrap;html=1;" parent="1" vertex="1">
          <mxGeometry x="240" y="1230" width="240" height="240" as="geometry" />
        </mxCell>
        <mxCell id="GQqyCp6rinUYMElH8DfC-54" style="edgeStyle=orthogonalEdgeStyle;rounded=0;orthogonalLoop=1;jettySize=auto;html=1;exitX=1;exitY=0.5;exitDx=0;exitDy=0;exitPerimeter=0;" parent="1" source="GQqyCp6rinUYMElH8DfC-55" target="GQqyCp6rinUYMElH8DfC-57" edge="1">
          <mxGeometry relative="1" as="geometry" />
        </mxCell>
        <mxCell id="GQqyCp6rinUYMElH8DfC-55" value="MongoDB&lt;div&gt;Primary&lt;/div&gt;" style="shape=cylinder3;whiteSpace=wrap;html=1;boundedLbl=1;backgroundOutline=1;size=15;" parent="1" vertex="1">
          <mxGeometry x="330" y="1270" width="60" height="80" as="geometry" />
        </mxCell>
        <mxCell id="GQqyCp6rinUYMElH8DfC-56" value="MongoDB&lt;div&gt;Secondary&lt;/div&gt;" style="shape=cylinder3;whiteSpace=wrap;html=1;boundedLbl=1;backgroundOutline=1;size=15;" parent="1" vertex="1">
          <mxGeometry x="270" y="1370" width="60" height="80" as="geometry" />
        </mxCell>
        <mxCell id="GQqyCp6rinUYMElH8DfC-57" value="MongoDB&lt;div&gt;Secondary&lt;/div&gt;" style="shape=cylinder3;whiteSpace=wrap;html=1;boundedLbl=1;backgroundOutline=1;size=15;" parent="1" vertex="1">
          <mxGeometry x="390" y="1370" width="60" height="80" as="geometry" />
        </mxCell>
        <mxCell id="GQqyCp6rinUYMElH8DfC-58" style="edgeStyle=orthogonalEdgeStyle;rounded=0;orthogonalLoop=1;jettySize=auto;html=1;exitX=0;exitY=0.5;exitDx=0;exitDy=0;exitPerimeter=0;entryX=0.5;entryY=0;entryDx=0;entryDy=0;entryPerimeter=0;" parent="1" source="GQqyCp6rinUYMElH8DfC-55" target="GQqyCp6rinUYMElH8DfC-56" edge="1">
          <mxGeometry relative="1" as="geometry" />
        </mxCell>
        <mxCell id="GQqyCp6rinUYMElH8DfC-59" value="Shard 1 (Replica Set)" style="text;html=1;align=center;verticalAlign=middle;resizable=0;points=[];autosize=1;strokeColor=none;fillColor=none;" parent="1" vertex="1">
          <mxGeometry x="290" y="1230" width="140" height="30" as="geometry" />
        </mxCell>
        <mxCell id="GQqyCp6rinUYMElH8DfC-60" value="" style="rounded=1;whiteSpace=wrap;html=1;" parent="1" vertex="1">
          <mxGeometry x="510" y="1230" width="240" height="240" as="geometry" />
        </mxCell>
        <mxCell id="GQqyCp6rinUYMElH8DfC-61" style="edgeStyle=orthogonalEdgeStyle;rounded=0;orthogonalLoop=1;jettySize=auto;html=1;exitX=1;exitY=0.5;exitDx=0;exitDy=0;exitPerimeter=0;" parent="1" source="GQqyCp6rinUYMElH8DfC-62" target="GQqyCp6rinUYMElH8DfC-64" edge="1">
          <mxGeometry relative="1" as="geometry" />
        </mxCell>
        <mxCell id="GQqyCp6rinUYMElH8DfC-62" value="MongoDB&lt;div&gt;Primary&lt;/div&gt;" style="shape=cylinder3;whiteSpace=wrap;html=1;boundedLbl=1;backgroundOutline=1;size=15;" parent="1" vertex="1">
          <mxGeometry x="600" y="1270" width="60" height="80" as="geometry" />
        </mxCell>
        <mxCell id="GQqyCp6rinUYMElH8DfC-63" value="MongoDB&lt;div&gt;Secondary&lt;/div&gt;" style="shape=cylinder3;whiteSpace=wrap;html=1;boundedLbl=1;backgroundOutline=1;size=15;" parent="1" vertex="1">
          <mxGeometry x="540" y="1370" width="60" height="80" as="geometry" />
        </mxCell>
        <mxCell id="GQqyCp6rinUYMElH8DfC-64" value="MongoDB&lt;div&gt;Secondary&lt;/div&gt;" style="shape=cylinder3;whiteSpace=wrap;html=1;boundedLbl=1;backgroundOutline=1;size=15;" parent="1" vertex="1">
          <mxGeometry x="660" y="1370" width="60" height="80" as="geometry" />
        </mxCell>
        <mxCell id="GQqyCp6rinUYMElH8DfC-65" style="edgeStyle=orthogonalEdgeStyle;rounded=0;orthogonalLoop=1;jettySize=auto;html=1;exitX=0;exitY=0.5;exitDx=0;exitDy=0;exitPerimeter=0;entryX=0.5;entryY=0;entryDx=0;entryDy=0;entryPerimeter=0;" parent="1" source="GQqyCp6rinUYMElH8DfC-62" target="GQqyCp6rinUYMElH8DfC-63" edge="1">
          <mxGeometry relative="1" as="geometry" />
        </mxCell>
        <mxCell id="GQqyCp6rinUYMElH8DfC-66" value="Shard 2 (Replica Set)" style="text;html=1;align=center;verticalAlign=middle;resizable=0;points=[];autosize=1;strokeColor=none;fillColor=none;" parent="1" vertex="1">
          <mxGeometry x="560" y="1230" width="140" height="30" as="geometry" />
        </mxCell>
        <mxCell id="GQqyCp6rinUYMElH8DfC-71" value="" style="endArrow=classic;html=1;rounded=0;entryX=0.491;entryY=-0.04;entryDx=0;entryDy=0;entryPerimeter=0;exitX=0.25;exitY=1;exitDx=0;exitDy=0;" parent="1" source="GQqyCp6rinUYMElH8DfC-34" target="GQqyCp6rinUYMElH8DfC-59" edge="1">
          <mxGeometry width="50" height="50" relative="1" as="geometry">
            <mxPoint x="360" y="1160" as="sourcePoint" />
            <mxPoint x="410" y="1110" as="targetPoint" />
            <Array as="points">
              <mxPoint x="470" y="1160" />
              <mxPoint x="360" y="1160" />
            </Array>
          </mxGeometry>
        </mxCell>
        <mxCell id="GQqyCp6rinUYMElH8DfC-72" value="" style="endArrow=classic;html=1;rounded=0;entryX=0.5;entryY=1;entryDx=0;entryDy=0;exitX=0.5;exitY=1;exitDx=0;exitDy=0;" parent="1" source="GQqyCp6rinUYMElH8DfC-60" target="GQqyCp6rinUYMElH8DfC-35" edge="1">
          <mxGeometry width="50" height="50" relative="1" as="geometry">
            <mxPoint x="790" y="1200" as="sourcePoint" />
            <mxPoint x="780" y="1280" as="targetPoint" />
            <Array as="points">
              <mxPoint x="630" y="1510" />
              <mxPoint x="790" y="1510" />
              <mxPoint x="790" y="1150" />
              <mxPoint x="690" y="1150" />
            </Array>
          </mxGeometry>
        </mxCell>
        <mxCell id="GQqyCp6rinUYMElH8DfC-73" value="" style="endArrow=classic;html=1;rounded=0;exitX=0.5;exitY=1;exitDx=0;exitDy=0;entryX=0.75;entryY=1;entryDx=0;entryDy=0;" parent="1" source="GQqyCp6rinUYMElH8DfC-53" target="GQqyCp6rinUYMElH8DfC-35" edge="1">
          <mxGeometry width="50" height="50" relative="1" as="geometry">
            <mxPoint x="550" y="1370" as="sourcePoint" />
            <mxPoint x="820" y="1530" as="targetPoint" />
            <Array as="points">
              <mxPoint x="360" y="1530" />
              <mxPoint x="820" y="1530" />
              <mxPoint x="820" y="1130" />
              <mxPoint x="720" y="1130" />
            </Array>
          </mxGeometry>
        </mxCell>
        <mxCell id="GQqyCp6rinUYMElH8DfC-74" value="&lt;font style=&quot;font-size: 20px;&quot;&gt;Задание 1 - схема 3&lt;/font&gt;" style="text;html=1;align=center;verticalAlign=middle;resizable=0;points=[];autosize=1;strokeColor=none;fillColor=none;" parent="1" vertex="1">
          <mxGeometry x="429" y="1600" width="210" height="40" as="geometry" />
        </mxCell>
        <mxCell id="GQqyCp6rinUYMElH8DfC-75" value="" style="edgeStyle=orthogonalEdgeStyle;rounded=0;orthogonalLoop=1;jettySize=auto;html=1;" parent="1" source="GQqyCp6rinUYMElH8DfC-76" target="GQqyCp6rinUYMElH8DfC-78" edge="1">
          <mxGeometry relative="1" as="geometry" />
        </mxCell>
        <mxCell id="GQqyCp6rinUYMElH8DfC-76" value="pymongo-api" style="rounded=1;whiteSpace=wrap;html=1;" parent="1" vertex="1">
          <mxGeometry x="430" y="1720" width="120" height="60" as="geometry" />
        </mxCell>
        <mxCell id="GQqyCp6rinUYMElH8DfC-77" value="" style="edgeStyle=orthogonalEdgeStyle;rounded=0;orthogonalLoop=1;jettySize=auto;html=1;exitX=0.75;exitY=1;exitDx=0;exitDy=0;entryX=0.494;entryY=-0.067;entryDx=0;entryDy=0;entryPerimeter=0;" parent="1" source="GQqyCp6rinUYMElH8DfC-78" target="GQqyCp6rinUYMElH8DfC-94" edge="1">
          <mxGeometry relative="1" as="geometry">
            <mxPoint x="550" y="1950" as="targetPoint" />
          </mxGeometry>
        </mxCell>
        <mxCell id="GQqyCp6rinUYMElH8DfC-78" value="router&amp;nbsp;&lt;span style=&quot;background-color: transparent; color: light-dark(rgb(0, 0, 0), rgb(255, 255, 255));&quot;&gt;Mongos&lt;/span&gt;" style="rounded=1;whiteSpace=wrap;html=1;" parent="1" vertex="1">
          <mxGeometry x="430" y="1830" width="120" height="60" as="geometry" />
        </mxCell>
        <mxCell id="GQqyCp6rinUYMElH8DfC-79" value="configuration server" style="rounded=1;whiteSpace=wrap;html=1;" parent="1" vertex="1">
          <mxGeometry x="620" y="1830" width="120" height="60" as="geometry" />
        </mxCell>
        <mxCell id="GQqyCp6rinUYMElH8DfC-80" value="" style="endArrow=classic;html=1;rounded=0;exitX=1;exitY=0.5;exitDx=0;exitDy=0;entryX=0;entryY=0.5;entryDx=0;entryDy=0;" parent="1" source="GQqyCp6rinUYMElH8DfC-78" target="GQqyCp6rinUYMElH8DfC-79" edge="1">
          <mxGeometry width="50" height="50" relative="1" as="geometry">
            <mxPoint x="520" y="1950" as="sourcePoint" />
            <mxPoint x="590" y="1900" as="targetPoint" />
          </mxGeometry>
        </mxCell>
        <mxCell id="GQqyCp6rinUYMElH8DfC-81" value="" style="rounded=1;whiteSpace=wrap;html=1;" parent="1" vertex="1">
          <mxGeometry x="230" y="2020" width="240" height="240" as="geometry" />
        </mxCell>
        <mxCell id="GQqyCp6rinUYMElH8DfC-82" style="edgeStyle=orthogonalEdgeStyle;rounded=0;orthogonalLoop=1;jettySize=auto;html=1;exitX=1;exitY=0.5;exitDx=0;exitDy=0;exitPerimeter=0;" parent="1" source="GQqyCp6rinUYMElH8DfC-83" target="GQqyCp6rinUYMElH8DfC-85" edge="1">
          <mxGeometry relative="1" as="geometry" />
        </mxCell>
        <mxCell id="GQqyCp6rinUYMElH8DfC-83" value="MongoDB&lt;div&gt;Primary&lt;/div&gt;" style="shape=cylinder3;whiteSpace=wrap;html=1;boundedLbl=1;backgroundOutline=1;size=15;" parent="1" vertex="1">
          <mxGeometry x="320" y="2060" width="60" height="80" as="geometry" />
        </mxCell>
        <mxCell id="GQqyCp6rinUYMElH8DfC-84" value="MongoDB&lt;div&gt;Secondary&lt;/div&gt;" style="shape=cylinder3;whiteSpace=wrap;html=1;boundedLbl=1;backgroundOutline=1;size=15;" parent="1" vertex="1">
          <mxGeometry x="260" y="2160" width="60" height="80" as="geometry" />
        </mxCell>
        <mxCell id="GQqyCp6rinUYMElH8DfC-85" value="MongoDB&lt;div&gt;Secondary&lt;/div&gt;" style="shape=cylinder3;whiteSpace=wrap;html=1;boundedLbl=1;backgroundOutline=1;size=15;" parent="1" vertex="1">
          <mxGeometry x="380" y="2160" width="60" height="80" as="geometry" />
        </mxCell>
        <mxCell id="GQqyCp6rinUYMElH8DfC-86" style="edgeStyle=orthogonalEdgeStyle;rounded=0;orthogonalLoop=1;jettySize=auto;html=1;exitX=0;exitY=0.5;exitDx=0;exitDy=0;exitPerimeter=0;entryX=0.5;entryY=0;entryDx=0;entryDy=0;entryPerimeter=0;" parent="1" source="GQqyCp6rinUYMElH8DfC-83" target="GQqyCp6rinUYMElH8DfC-84" edge="1">
          <mxGeometry relative="1" as="geometry" />
        </mxCell>
        <mxCell id="GQqyCp6rinUYMElH8DfC-87" value="Shard 1 (Replica Set)" style="text;html=1;align=center;verticalAlign=middle;resizable=0;points=[];autosize=1;strokeColor=none;fillColor=none;" parent="1" vertex="1">
          <mxGeometry x="280" y="2020" width="140" height="30" as="geometry" />
        </mxCell>
        <mxCell id="GQqyCp6rinUYMElH8DfC-88" value="" style="rounded=1;whiteSpace=wrap;html=1;" parent="1" vertex="1">
          <mxGeometry x="500" y="2020" width="240" height="240" as="geometry" />
        </mxCell>
        <mxCell id="GQqyCp6rinUYMElH8DfC-89" style="edgeStyle=orthogonalEdgeStyle;rounded=0;orthogonalLoop=1;jettySize=auto;html=1;exitX=1;exitY=0.5;exitDx=0;exitDy=0;exitPerimeter=0;" parent="1" source="GQqyCp6rinUYMElH8DfC-90" target="GQqyCp6rinUYMElH8DfC-92" edge="1">
          <mxGeometry relative="1" as="geometry" />
        </mxCell>
        <mxCell id="GQqyCp6rinUYMElH8DfC-90" value="MongoDB&lt;div&gt;Primary&lt;/div&gt;" style="shape=cylinder3;whiteSpace=wrap;html=1;boundedLbl=1;backgroundOutline=1;size=15;" parent="1" vertex="1">
          <mxGeometry x="590" y="2060" width="60" height="80" as="geometry" />
        </mxCell>
        <mxCell id="GQqyCp6rinUYMElH8DfC-91" value="MongoDB&lt;div&gt;Secondary&lt;/div&gt;" style="shape=cylinder3;whiteSpace=wrap;html=1;boundedLbl=1;backgroundOutline=1;size=15;" parent="1" vertex="1">
          <mxGeometry x="530" y="2160" width="60" height="80" as="geometry" />
        </mxCell>
        <mxCell id="GQqyCp6rinUYMElH8DfC-92" value="MongoDB&lt;div&gt;Secondary&lt;/div&gt;" style="shape=cylinder3;whiteSpace=wrap;html=1;boundedLbl=1;backgroundOutline=1;size=15;" parent="1" vertex="1">
          <mxGeometry x="650" y="2160" width="60" height="80" as="geometry" />
        </mxCell>
        <mxCell id="GQqyCp6rinUYMElH8DfC-93" style="edgeStyle=orthogonalEdgeStyle;rounded=0;orthogonalLoop=1;jettySize=auto;html=1;exitX=0;exitY=0.5;exitDx=0;exitDy=0;exitPerimeter=0;entryX=0.5;entryY=0;entryDx=0;entryDy=0;entryPerimeter=0;" parent="1" source="GQqyCp6rinUYMElH8DfC-90" target="GQqyCp6rinUYMElH8DfC-91" edge="1">
          <mxGeometry relative="1" as="geometry" />
        </mxCell>
        <mxCell id="GQqyCp6rinUYMElH8DfC-94" value="Shard 2 (Replica Set)" style="text;html=1;align=center;verticalAlign=middle;resizable=0;points=[];autosize=1;strokeColor=none;fillColor=none;" parent="1" vertex="1">
          <mxGeometry x="550" y="2020" width="140" height="30" as="geometry" />
        </mxCell>
        <mxCell id="GQqyCp6rinUYMElH8DfC-95" value="" style="endArrow=classic;html=1;rounded=0;entryX=0.491;entryY=-0.04;entryDx=0;entryDy=0;entryPerimeter=0;exitX=0.25;exitY=1;exitDx=0;exitDy=0;" parent="1" source="GQqyCp6rinUYMElH8DfC-78" target="GQqyCp6rinUYMElH8DfC-87" edge="1">
          <mxGeometry width="50" height="50" relative="1" as="geometry">
            <mxPoint x="350" y="1950" as="sourcePoint" />
            <mxPoint x="400" y="1900" as="targetPoint" />
            <Array as="points">
              <mxPoint x="460" y="1950" />
              <mxPoint x="350" y="1950" />
            </Array>
          </mxGeometry>
        </mxCell>
        <mxCell id="GQqyCp6rinUYMElH8DfC-97" value="" style="endArrow=classic;html=1;rounded=0;exitX=0.5;exitY=1;exitDx=0;exitDy=0;entryX=0.75;entryY=1;entryDx=0;entryDy=0;" parent="1" source="GQqyCp6rinUYMElH8DfC-81" target="GQqyCp6rinUYMElH8DfC-79" edge="1">
          <mxGeometry width="50" height="50" relative="1" as="geometry">
            <mxPoint x="540" y="2160" as="sourcePoint" />
            <mxPoint x="810" y="2320" as="targetPoint" />
            <Array as="points">
              <mxPoint x="350" y="2320" />
              <mxPoint x="810" y="2320" />
              <mxPoint x="810" y="1920" />
              <mxPoint x="710" y="1920" />
            </Array>
          </mxGeometry>
        </mxCell>
        <mxCell id="GQqyCp6rinUYMElH8DfC-98" value="redis cahe" style="rounded=1;whiteSpace=wrap;html=1;" parent="1" vertex="1">
          <mxGeometry x="620" y="1720" width="120" height="60" as="geometry" />
        </mxCell>
        <mxCell id="GQqyCp6rinUYMElH8DfC-99" value="" style="endArrow=classic;html=1;rounded=0;entryX=0;entryY=0.5;entryDx=0;entryDy=0;exitX=1;exitY=0.5;exitDx=0;exitDy=0;" parent="1" source="GQqyCp6rinUYMElH8DfC-76" target="GQqyCp6rinUYMElH8DfC-98" edge="1">
          <mxGeometry width="50" height="50" relative="1" as="geometry">
            <mxPoint x="610" y="1830" as="sourcePoint" />
            <mxPoint x="560" y="1880" as="targetPoint" />
          </mxGeometry>
        </mxCell>
        <mxCell id="Csz2sN3DULFq9R540mQB-1" value="&lt;font style=&quot;font-size: 20px;&quot;&gt;Задание 5,6&lt;/font&gt;" style="text;html=1;align=center;verticalAlign=middle;resizable=0;points=[];autosize=1;strokeColor=none;fillColor=none;" vertex="1" parent="1">
          <mxGeometry x="480" y="2420" width="140" height="40" as="geometry" />
        </mxCell>
        <mxCell id="Csz2sN3DULFq9R540mQB-85" value="" style="edgeStyle=orthogonalEdgeStyle;rounded=0;orthogonalLoop=1;jettySize=auto;html=1;" edge="1" parent="1" source="Csz2sN3DULFq9R540mQB-45" target="Csz2sN3DULFq9R540mQB-46">
          <mxGeometry relative="1" as="geometry" />
        </mxCell>
        <mxCell id="Csz2sN3DULFq9R540mQB-45" value="User" style="shape=umlActor;verticalLabelPosition=bottom;verticalAlign=top;html=1;outlineConnect=0;" vertex="1" parent="1">
          <mxGeometry x="530" y="2520" width="30" height="60" as="geometry" />
        </mxCell>
        <mxCell id="Csz2sN3DULFq9R540mQB-86" style="edgeStyle=orthogonalEdgeStyle;rounded=0;orthogonalLoop=1;jettySize=auto;html=1;" edge="1" parent="1" source="Csz2sN3DULFq9R540mQB-46" target="Csz2sN3DULFq9R540mQB-52">
          <mxGeometry relative="1" as="geometry" />
        </mxCell>
        <mxCell id="Csz2sN3DULFq9R540mQB-46" value="Client app" style="rounded=1;whiteSpace=wrap;html=1;" vertex="1" parent="1">
          <mxGeometry x="485" y="2679" width="120" height="60" as="geometry" />
        </mxCell>
        <mxCell id="Csz2sN3DULFq9R540mQB-47" value="" style="group" vertex="1" connectable="0" parent="1">
          <mxGeometry x="470" y="2839" width="150" height="90" as="geometry" />
        </mxCell>
        <mxCell id="Csz2sN3DULFq9R540mQB-48" value="APISIX Gateway" style="rounded=1;whiteSpace=wrap;html=1;spacingRight=0;align=center;fillColor=#1ba1e2;strokeColor=#006EAF;fontColor=#ffffff;" vertex="1" parent="Csz2sN3DULFq9R540mQB-47">
          <mxGeometry y="20" width="150" height="70" as="geometry" />
        </mxCell>
        <mxCell id="Csz2sN3DULFq9R540mQB-88" value="" style="edgeStyle=orthogonalEdgeStyle;rounded=0;orthogonalLoop=1;jettySize=auto;html=1;" edge="1" parent="1" source="Csz2sN3DULFq9R540mQB-49" target="Csz2sN3DULFq9R540mQB-53">
          <mxGeometry relative="1" as="geometry" />
        </mxCell>
        <mxCell id="Csz2sN3DULFq9R540mQB-92" value="gets app list" style="edgeLabel;html=1;align=center;verticalAlign=middle;resizable=0;points=[];" vertex="1" connectable="0" parent="Csz2sN3DULFq9R540mQB-88">
          <mxGeometry x="-0.3714" y="4" relative="1" as="geometry">
            <mxPoint x="12" y="-6" as="offset" />
          </mxGeometry>
        </mxCell>
        <mxCell id="Csz2sN3DULFq9R540mQB-49" value="consul_kv" style="rounded=1;whiteSpace=wrap;html=1;fillColor=#fad7ac;strokeColor=#b46504;" vertex="1" parent="1">
          <mxGeometry x="595" y="2874" width="70" height="40" as="geometry" />
        </mxCell>
        <mxCell id="Csz2sN3DULFq9R540mQB-87" style="edgeStyle=orthogonalEdgeStyle;rounded=0;orthogonalLoop=1;jettySize=auto;html=1;entryX=0;entryY=0.5;entryDx=0;entryDy=0;exitX=0.55;exitY=0.95;exitDx=0;exitDy=0;exitPerimeter=0;" edge="1" parent="1" source="Csz2sN3DULFq9R540mQB-52" target="Csz2sN3DULFq9R540mQB-48">
          <mxGeometry relative="1" as="geometry">
            <Array as="points">
              <mxPoint x="346" y="2894" />
            </Array>
          </mxGeometry>
        </mxCell>
        <mxCell id="Csz2sN3DULFq9R540mQB-52" value="CDN" style="ellipse;shape=cloud;whiteSpace=wrap;html=1;" vertex="1" parent="1">
          <mxGeometry x="280" y="2749" width="120" height="80" as="geometry" />
        </mxCell>
        <mxCell id="Csz2sN3DULFq9R540mQB-53" value="Consul" style="rounded=1;whiteSpace=wrap;html=1;" vertex="1" parent="1">
          <mxGeometry x="770" y="2864" width="120" height="60" as="geometry" />
        </mxCell>
        <mxCell id="Csz2sN3DULFq9R540mQB-89" value="" style="edgeStyle=orthogonalEdgeStyle;rounded=0;orthogonalLoop=1;jettySize=auto;html=1;" edge="1" parent="1" source="Csz2sN3DULFq9R540mQB-55" target="Csz2sN3DULFq9R540mQB-82">
          <mxGeometry relative="1" as="geometry" />
        </mxCell>
        <mxCell id="Csz2sN3DULFq9R540mQB-91" style="edgeStyle=orthogonalEdgeStyle;rounded=0;orthogonalLoop=1;jettySize=auto;html=1;exitX=0.75;exitY=0;exitDx=0;exitDy=0;entryX=0.5;entryY=1;entryDx=0;entryDy=0;" edge="1" parent="1" source="Csz2sN3DULFq9R540mQB-55" target="Csz2sN3DULFq9R540mQB-53">
          <mxGeometry relative="1" as="geometry" />
        </mxCell>
        <mxCell id="Csz2sN3DULFq9R540mQB-93" value="servces registrations" style="edgeLabel;html=1;align=center;verticalAlign=middle;resizable=0;points=[];" vertex="1" connectable="0" parent="Csz2sN3DULFq9R540mQB-91">
          <mxGeometry x="-0.0222" relative="1" as="geometry">
            <mxPoint y="-17" as="offset" />
          </mxGeometry>
        </mxCell>
        <mxCell id="Csz2sN3DULFq9R540mQB-55" value="app instances" style="rounded=1;whiteSpace=wrap;html=1;arcSize=3;verticalAlign=top;" vertex="1" parent="1">
          <mxGeometry x="350" y="3029" width="390" height="240" as="geometry" />
        </mxCell>
        <mxCell id="Csz2sN3DULFq9R540mQB-56" value="app 1" style="rounded=1;whiteSpace=wrap;html=1;arcSize=3;verticalAlign=top;dashed=1;dashPattern=1 2;fillColor=#dae8fc;strokeColor=#6c8ebf;" vertex="1" parent="1">
          <mxGeometry x="414" y="3069" width="240" height="110" as="geometry" />
        </mxCell>
        <mxCell id="Csz2sN3DULFq9R540mQB-57" value="app 2" style="rounded=1;whiteSpace=wrap;html=1;arcSize=3;verticalAlign=top;dashed=1;dashPattern=1 2;fillColor=#dae8fc;strokeColor=#6c8ebf;" vertex="1" parent="1">
          <mxGeometry x="432" y="3099" width="240" height="110" as="geometry" />
        </mxCell>
        <mxCell id="Csz2sN3DULFq9R540mQB-58" value="app n" style="rounded=1;whiteSpace=wrap;html=1;arcSize=3;verticalAlign=top;dashed=1;dashPattern=1 2;fillColor=#dae8fc;strokeColor=#6c8ebf;" vertex="1" parent="1">
          <mxGeometry x="452" y="3129" width="240" height="110" as="geometry" />
        </mxCell>
        <mxCell id="Csz2sN3DULFq9R540mQB-59" value="pymongo-api" style="rounded=1;whiteSpace=wrap;html=1;" vertex="1" parent="1">
          <mxGeometry x="552" y="3159" width="120" height="60" as="geometry" />
        </mxCell>
        <mxCell id="Csz2sN3DULFq9R540mQB-60" value="&lt;div&gt;router mongos&lt;/div&gt;" style="shape=cylinder3;whiteSpace=wrap;html=1;boundedLbl=1;backgroundOutline=1;size=15;" vertex="1" parent="1">
          <mxGeometry x="515" y="3347" width="60" height="80" as="geometry" />
        </mxCell>
        <mxCell id="Csz2sN3DULFq9R540mQB-61" value="ConfigSrv" style="shape=cylinder3;whiteSpace=wrap;html=1;boundedLbl=1;backgroundOutline=1;size=15;" vertex="1" parent="1">
          <mxGeometry x="230" y="3347" width="60" height="80" as="geometry" />
        </mxCell>
        <mxCell id="Csz2sN3DULFq9R540mQB-96" style="edgeStyle=orthogonalEdgeStyle;rounded=0;orthogonalLoop=1;jettySize=auto;html=1;" edge="1" parent="1" source="Csz2sN3DULFq9R540mQB-67">
          <mxGeometry relative="1" as="geometry">
            <mxPoint x="270" y="3429" as="targetPoint" />
          </mxGeometry>
        </mxCell>
        <mxCell id="Csz2sN3DULFq9R540mQB-67" value="" style="rounded=1;whiteSpace=wrap;html=1;" vertex="1" parent="1">
          <mxGeometry x="310" y="3521" width="240" height="240" as="geometry" />
        </mxCell>
        <mxCell id="Csz2sN3DULFq9R540mQB-68" style="edgeStyle=orthogonalEdgeStyle;rounded=0;orthogonalLoop=1;jettySize=auto;html=1;exitX=1;exitY=0.5;exitDx=0;exitDy=0;exitPerimeter=0;" edge="1" parent="1" source="Csz2sN3DULFq9R540mQB-69" target="Csz2sN3DULFq9R540mQB-71">
          <mxGeometry relative="1" as="geometry" />
        </mxCell>
        <mxCell id="Csz2sN3DULFq9R540mQB-69" value="MongoDB&lt;div&gt;Primary&lt;/div&gt;" style="shape=cylinder3;whiteSpace=wrap;html=1;boundedLbl=1;backgroundOutline=1;size=15;" vertex="1" parent="1">
          <mxGeometry x="400" y="3561" width="60" height="80" as="geometry" />
        </mxCell>
        <mxCell id="Csz2sN3DULFq9R540mQB-70" value="MongoDB&lt;div&gt;Secondary&lt;/div&gt;" style="shape=cylinder3;whiteSpace=wrap;html=1;boundedLbl=1;backgroundOutline=1;size=15;" vertex="1" parent="1">
          <mxGeometry x="340" y="3661" width="60" height="80" as="geometry" />
        </mxCell>
        <mxCell id="Csz2sN3DULFq9R540mQB-71" value="MongoDB&lt;div&gt;Secondary&lt;/div&gt;" style="shape=cylinder3;whiteSpace=wrap;html=1;boundedLbl=1;backgroundOutline=1;size=15;" vertex="1" parent="1">
          <mxGeometry x="460" y="3661" width="60" height="80" as="geometry" />
        </mxCell>
        <mxCell id="Csz2sN3DULFq9R540mQB-72" style="edgeStyle=orthogonalEdgeStyle;rounded=0;orthogonalLoop=1;jettySize=auto;html=1;exitX=0;exitY=0.5;exitDx=0;exitDy=0;exitPerimeter=0;entryX=0.5;entryY=0;entryDx=0;entryDy=0;entryPerimeter=0;" edge="1" parent="1" source="Csz2sN3DULFq9R540mQB-69" target="Csz2sN3DULFq9R540mQB-70">
          <mxGeometry relative="1" as="geometry" />
        </mxCell>
        <mxCell id="Csz2sN3DULFq9R540mQB-73" value="Shard 1 (Replica Set)" style="text;html=1;align=center;verticalAlign=middle;resizable=0;points=[];autosize=1;strokeColor=none;fillColor=none;" vertex="1" parent="1">
          <mxGeometry x="360" y="3521" width="140" height="30" as="geometry" />
        </mxCell>
        <mxCell id="Csz2sN3DULFq9R540mQB-97" style="edgeStyle=orthogonalEdgeStyle;rounded=0;orthogonalLoop=1;jettySize=auto;html=1;exitX=0.5;exitY=1;exitDx=0;exitDy=0;" edge="1" parent="1" source="Csz2sN3DULFq9R540mQB-74">
          <mxGeometry relative="1" as="geometry">
            <mxPoint x="250" y="3429" as="targetPoint" />
          </mxGeometry>
        </mxCell>
        <mxCell id="Csz2sN3DULFq9R540mQB-74" value="" style="rounded=1;whiteSpace=wrap;html=1;" vertex="1" parent="1">
          <mxGeometry x="580" y="3521" width="240" height="240" as="geometry" />
        </mxCell>
        <mxCell id="Csz2sN3DULFq9R540mQB-75" style="edgeStyle=orthogonalEdgeStyle;rounded=0;orthogonalLoop=1;jettySize=auto;html=1;exitX=1;exitY=0.5;exitDx=0;exitDy=0;exitPerimeter=0;" edge="1" parent="1" source="Csz2sN3DULFq9R540mQB-76" target="Csz2sN3DULFq9R540mQB-78">
          <mxGeometry relative="1" as="geometry" />
        </mxCell>
        <mxCell id="Csz2sN3DULFq9R540mQB-76" value="MongoDB&lt;div&gt;Primary&lt;/div&gt;" style="shape=cylinder3;whiteSpace=wrap;html=1;boundedLbl=1;backgroundOutline=1;size=15;" vertex="1" parent="1">
          <mxGeometry x="670" y="3561" width="60" height="80" as="geometry" />
        </mxCell>
        <mxCell id="Csz2sN3DULFq9R540mQB-77" value="MongoDB&lt;div&gt;Secondary&lt;/div&gt;" style="shape=cylinder3;whiteSpace=wrap;html=1;boundedLbl=1;backgroundOutline=1;size=15;" vertex="1" parent="1">
          <mxGeometry x="610" y="3661" width="60" height="80" as="geometry" />
        </mxCell>
        <mxCell id="Csz2sN3DULFq9R540mQB-78" value="MongoDB&lt;div&gt;Secondary&lt;/div&gt;" style="shape=cylinder3;whiteSpace=wrap;html=1;boundedLbl=1;backgroundOutline=1;size=15;" vertex="1" parent="1">
          <mxGeometry x="730" y="3661" width="60" height="80" as="geometry" />
        </mxCell>
        <mxCell id="Csz2sN3DULFq9R540mQB-79" style="edgeStyle=orthogonalEdgeStyle;rounded=0;orthogonalLoop=1;jettySize=auto;html=1;exitX=0;exitY=0.5;exitDx=0;exitDy=0;exitPerimeter=0;entryX=0.5;entryY=0;entryDx=0;entryDy=0;entryPerimeter=0;" edge="1" parent="1" source="Csz2sN3DULFq9R540mQB-76" target="Csz2sN3DULFq9R540mQB-77">
          <mxGeometry relative="1" as="geometry" />
        </mxCell>
        <mxCell id="Csz2sN3DULFq9R540mQB-80" value="Shard 2 (Replica Set)" style="text;html=1;align=center;verticalAlign=middle;resizable=0;points=[];autosize=1;strokeColor=none;fillColor=none;" vertex="1" parent="1">
          <mxGeometry x="630" y="3521" width="140" height="30" as="geometry" />
        </mxCell>
        <mxCell id="Csz2sN3DULFq9R540mQB-82" value="redis cache" style="rounded=1;whiteSpace=wrap;html=1;fillColor=#008a00;strokeColor=#005700;fontColor=#ffffff;" vertex="1" parent="1">
          <mxGeometry x="800" y="3119" width="120" height="60" as="geometry" />
        </mxCell>
        <mxCell id="Csz2sN3DULFq9R540mQB-90" value="" style="edgeStyle=orthogonalEdgeStyle;rounded=0;orthogonalLoop=1;jettySize=auto;html=1;" edge="1" parent="1" source="Csz2sN3DULFq9R540mQB-48" target="Csz2sN3DULFq9R540mQB-55">
          <mxGeometry relative="1" as="geometry" />
        </mxCell>
        <mxCell id="Csz2sN3DULFq9R540mQB-94" style="edgeStyle=orthogonalEdgeStyle;rounded=0;orthogonalLoop=1;jettySize=auto;html=1;entryX=0.5;entryY=0;entryDx=0;entryDy=0;entryPerimeter=0;" edge="1" parent="1" source="Csz2sN3DULFq9R540mQB-55" target="Csz2sN3DULFq9R540mQB-60">
          <mxGeometry relative="1" as="geometry" />
        </mxCell>
        <mxCell id="Csz2sN3DULFq9R540mQB-95" style="edgeStyle=orthogonalEdgeStyle;rounded=0;orthogonalLoop=1;jettySize=auto;html=1;entryX=1;entryY=0.5;entryDx=0;entryDy=0;entryPerimeter=0;" edge="1" parent="1" source="Csz2sN3DULFq9R540mQB-60" target="Csz2sN3DULFq9R540mQB-61">
          <mxGeometry relative="1" as="geometry" />
        </mxCell>
        <mxCell id="Csz2sN3DULFq9R540mQB-98" style="edgeStyle=orthogonalEdgeStyle;rounded=0;orthogonalLoop=1;jettySize=auto;html=1;entryX=0.521;entryY=0;entryDx=0;entryDy=0;entryPerimeter=0;" edge="1" parent="1" source="Csz2sN3DULFq9R540mQB-60" target="Csz2sN3DULFq9R540mQB-73">
          <mxGeometry relative="1" as="geometry">
            <Array as="points">
              <mxPoint x="540" y="3479" />
              <mxPoint x="433" y="3479" />
            </Array>
          </mxGeometry>
        </mxCell>
        <mxCell id="Csz2sN3DULFq9R540mQB-99" style="edgeStyle=orthogonalEdgeStyle;rounded=0;orthogonalLoop=1;jettySize=auto;html=1;entryX=0.514;entryY=-0.067;entryDx=0;entryDy=0;entryPerimeter=0;exitX=0.65;exitY=1;exitDx=0;exitDy=0;exitPerimeter=0;" edge="1" parent="1" source="Csz2sN3DULFq9R540mQB-60" target="Csz2sN3DULFq9R540mQB-80">
          <mxGeometry relative="1" as="geometry">
            <Array as="points">
              <mxPoint x="554" y="3479" />
              <mxPoint x="702" y="3479" />
            </Array>
          </mxGeometry>
        </mxCell>
      </root>
    </mxGraphModel>
  </diagram>
</mxfile>
